<svg width="1280" height="900" viewBox="0 0 1280 900" fill="none" xmlns="http://www.w3.org/2000/svg" role="img" aria-labelledby="title desc">
  <title id="title">Monolith architecture map</title>
  <desc id="desc">A layered Monolith architecture diagram showing the application layer above controller state and core services, with feature presentation at the bottom, using icon-based cards and rounded containers.</desc>
  <defs>
    <linearGradient id="bg" x1="90" y1="40" x2="1185" y2="860" gradientUnits="userSpaceOnUse">
      <stop stop-color="#07161B"/>
      <stop offset="0.55" stop-color="#0D252C"/>
      <stop offset="1" stop-color="#102B38"/>
    </linearGradient>
    <linearGradient id="appCard" x1="112" y1="170" x2="1168" y2="314" gradientUnits="userSpaceOnUse">
      <stop stop-color="#1EB9A4"/>
      <stop offset="1" stop-color="#147D90"/>
    </linearGradient>
    <linearGradient id="stateCard" x1="112" y1="344" x2="612" y2="584" gradientUnits="userSpaceOnUse">
      <stop stop-color="#1B5569"/>
      <stop offset="1" stop-color="#102E42"/>
    </linearGradient>
    <linearGradient id="serviceCard" x1="668" y1="344" x2="1168" y2="584" gradientUnits="userSpaceOnUse">
      <stop stop-color="#151F26"/>
      <stop offset="1" stop-color="#0B141A"/>
    </linearGradient>
    <linearGradient id="featureCard" x1="112" y1="628" x2="1168" y2="820" gradientUnits="userSpaceOnUse">
      <stop stop-color="#A8622E"/>
      <stop offset="1" stop-color="#82461E"/>
    </linearGradient>
    <filter id="shadow" x="80" y="154" width="1120" height="692" filterUnits="userSpaceOnUse" color-interpolation-filters="sRGB">
      <feFlood flood-opacity="0" result="BackgroundImageFix"/>
      <feColorMatrix in="SourceAlpha" type="matrix" values="0 0 0 0 0 0 0 0 0 0 0 0 0 0 0 0 0 0 127 0" result="hardAlpha"/>
      <feOffset dy="14"/>
      <feGaussianBlur stdDeviation="16"/>
      <feColorMatrix type="matrix" values="0 0 0 0 0.0117647 0 0 0 0 0.0784314 0 0 0 0 0.101961 0 0 0 0.34 0"/>
      <feBlend mode="normal" in2="BackgroundImageFix" result="effect1_dropShadow_1_1"/>
      <feBlend mode="normal" in="SourceGraphic" in2="effect1_dropShadow_1_1" result="shape"/>
    </filter>
  </defs>
  <rect width="1280" height="900" rx="36" fill="url(#bg)"/>
  <circle cx="1110" cy="126" r="148" fill="#31C7B4" fill-opacity="0.08"/>
  <circle cx="166" cy="748" r="172" fill="#6FC3FF" fill-opacity="0.07"/>
  <text x="88" y="96" fill="#F4F7F8" font-size="42" font-family="Segoe UI, Arial, sans-serif" font-weight="700">Monolith Architecture Map</text>
  <text x="88" y="136" fill="#9AB6BC" font-size="18" font-family="Segoe UI, Arial, sans-serif">Controller-first orchestration with shared services, platform integration, and feature-scoped presentation.</text>

  <g filter="url(#shadow)">
    <rect x="112" y="170" width="1056" height="124" rx="30" fill="url(#appCard)"/>
    <rect x="112" y="344" width="500" height="222" rx="30" fill="url(#stateCard)" stroke="#5C8F9B" stroke-opacity="0.42" stroke-width="2"/>
    <rect x="668" y="344" width="500" height="222" rx="30" fill="url(#serviceCard)" stroke="#506773" stroke-opacity="0.42" stroke-width="2"/>
    <rect x="112" y="628" width="1056" height="192" rx="30" fill="url(#featureCard)"/>
  </g>

  <g>
    <rect x="144" y="198" width="68" height="68" rx="18" fill="#F4FCFB" fill-opacity="0.18"/>
    <rect x="159" y="213" width="16" height="16" rx="4" fill="#F7FBFC"/>
    <rect x="181" y="213" width="16" height="16" rx="4" fill="#F7FBFC"/>
    <rect x="159" y="235" width="16" height="16" rx="4" fill="#F7FBFC"/>
    <rect x="181" y="235" width="16" height="16" rx="4" fill="#F7FBFC"/>
    <text x="232" y="222" fill="#F7FBFC" font-size="31" font-family="Segoe UI, Arial, sans-serif" font-weight="700">Application Layer</text>
    <text x="232" y="257" fill="#DDF4F1" font-size="18" font-family="Segoe UI, Arial, sans-serif">`main.dart` initializes playback support, `MonolithApp` scopes the controller, and the shell launches the shared mobile UI.</text>
    <rect x="896" y="201" width="226" height="58" rx="18" fill="#F7FBFC" fill-opacity="0.14"/>
    <text x="935" y="238" fill="#F7FBFC" font-size="18" font-family="Segoe UI, Arial, sans-serif" font-weight="600">Theme + App Shell</text>
  </g>

  <g>
    <circle cx="172" cy="402" r="34" fill="#F7FBFC" fill-opacity="0.14"/>
    <path d="M158 402C158 394.268 164.268 388 172 388C179.732 388 186 394.268 186 402C186 409.732 179.732 416 172 416C164.268 416 158 409.732 158 402ZM166 402C166 405.314 168.686 408 172 408C175.314 408 178 405.314 178 402C178 398.686 175.314 396 172 396C168.686 396 166 398.686 166 402Z" fill="#F7FBFC"/>
    <path d="M171 377H173V385H171V377ZM171 419H173V427H171V419ZM147 401H155V403H147V401ZM189 401H197V403H189V401Z" fill="#F7FBFC"/>
    <text x="224" y="392" fill="#F7FBFC" font-size="31" font-family="Segoe UI, Arial, sans-serif" font-weight="700">State Core</text>
    <text x="224" y="427" fill="#C9DCE3" font-size="18" font-family="Segoe UI, Arial, sans-serif">`MonolithController` coordinates playback, downloads, playlists, library state, theme, and navigation in one application source of truth.</text>
    <rect x="224" y="464" width="118" height="34" rx="17" fill="#F7FBFC" fill-opacity="0.12"/>
    <text x="252" y="486" fill="#F7FBFC" font-size="14" font-family="Segoe UI, Arial, sans-serif" font-weight="600">Playback</text>
    <rect x="352" y="464" width="122" height="34" rx="17" fill="#F7FBFC" fill-opacity="0.12"/>
    <text x="382" y="486" fill="#F7FBFC" font-size="14" font-family="Segoe UI, Arial, sans-serif" font-weight="600">Downloads</text>
    <rect x="484" y="464" width="104" height="34" rx="17" fill="#F7FBFC" fill-opacity="0.12"/>
    <text x="512" y="486" fill="#F7FBFC" font-size="14" font-family="Segoe UI, Arial, sans-serif" font-weight="600">Theme</text>
    <rect x="224" y="512" width="114" height="34" rx="17" fill="#F7FBFC" fill-opacity="0.12"/>
    <text x="257" y="534" fill="#F7FBFC" font-size="14" font-family="Segoe UI, Arial, sans-serif" font-weight="600">Library</text>
    <rect x="348" y="512" width="112" height="34" rx="17" fill="#F7FBFC" fill-opacity="0.12"/>
    <text x="377" y="534" fill="#F7FBFC" font-size="14" font-family="Segoe UI, Arial, sans-serif" font-weight="600">Queue</text>
    <rect x="470" y="512" width="116" height="34" rx="17" fill="#F7FBFC" fill-opacity="0.12"/>
    <text x="490" y="534" fill="#F7FBFC" font-size="14" font-family="Segoe UI, Arial, sans-serif" font-weight="600">Navigation</text>
  </g>

  <g>
    <circle cx="728" cy="402" r="34" fill="#F7FBFC" fill-opacity="0.08"/>
    <path d="M711 392C711 385.925 715.925 381 722 381H734C740.075 381 745 385.925 745 392V412C745 418.075 740.075 423 734 423H722C715.925 423 711 418.075 711 412V392ZM719 393V411C719 412.105 719.895 413 721 413H735C736.105 413 737 412.105 737 411V393C737 391.895 736.105 391 735 391H721C719.895 391 719 391.895 719 393Z" fill="#F7FBFC"/>
    <path d="M723 396H733V400H723V396ZM723 404H733V408H723V404Z" fill="#F7FBFC"/>
    <text x="780" y="392" fill="#F7FBFC" font-size="31" font-family="Segoe UI, Arial, sans-serif" font-weight="700">Core Services</text>
    <text x="780" y="427" fill="#BACBD1" font-size="18" font-family="Segoe UI, Arial, sans-serif">Storage, media access, imports, download integration, and shared models stay isolated from widgets so the presentation layer remains thin.</text>
    <rect x="780" y="464" width="150" height="34" rx="17" fill="#F7FBFC" fill-opacity="0.08"/>
    <text x="806" y="486" fill="#F7FBFC" font-size="14" font-family="Segoe UI, Arial, sans-serif" font-weight="600">Local media</text>
    <rect x="940" y="464" width="136" height="34" rx="17" fill="#F7FBFC" fill-opacity="0.08"/>
    <text x="971" y="486" fill="#F7FBFC" font-size="14" font-family="Segoe UI, Arial, sans-serif" font-weight="600">Store</text>
    <rect x="1086" y="464" width="82" height="34" rx="17" fill="#F7FBFC" fill-opacity="0.08"/>
    <text x="1105" y="486" fill="#F7FBFC" font-size="14" font-family="Segoe UI, Arial, sans-serif" font-weight="600">Models</text>
    <rect x="780" y="512" width="164" height="34" rx="17" fill="#F7FBFC" fill-opacity="0.08"/>
    <text x="809" y="534" fill="#F7FBFC" font-size="14" font-family="Segoe UI, Arial, sans-serif" font-weight="600">Manual import</text>
    <rect x="954" y="512" width="160" height="34" rx="17" fill="#F7FBFC" fill-opacity="0.08"/>
    <text x="982" y="534" fill="#F7FBFC" font-size="14" font-family="Segoe UI, Arial, sans-serif" font-weight="600">Downloader</text>
  </g>

  <g>
    <rect x="144" y="658" width="68" height="68" rx="18" fill="#FFF7EF" fill-opacity="0.14"/>
    <rect x="159" y="676" width="38" height="28" rx="8" fill="#FFF5EB"/>
    <rect x="164" y="682" width="10" height="16" rx="3" fill="#A8622E"/>
    <rect x="178" y="682" width="14" height="6" rx="2" fill="#A8622E"/>
    <rect x="178" y="692" width="14" height="6" rx="2" fill="#A8622E"/>
    <text x="232" y="683" fill="#FFF5EB" font-size="31" font-family="Segoe UI, Arial, sans-serif" font-weight="700">Feature Presentation</text>
    <text x="232" y="718" fill="#F6DDC9" font-size="18" font-family="Segoe UI, Arial, sans-serif">Widgets stay mostly declarative: they render the shell and feature surfaces while reading controller state and dispatching user actions.</text>
    <rect x="232" y="750" width="86" height="34" rx="17" fill="#FFF5EB" fill-opacity="0.14"/>
    <text x="256" y="772" fill="#FFF5EB" font-size="14" font-family="Segoe UI, Arial, sans-serif" font-weight="600">Shell</text>
    <rect x="328" y="750" width="94" height="34" rx="17" fill="#FFF5EB" fill-opacity="0.14"/>
    <text x="353" y="772" fill="#FFF5EB" font-size="14" font-family="Segoe UI, Arial, sans-serif" font-weight="600">Library</text>
    <rect x="432" y="750" width="106" height="34" rx="17" fill="#FFF5EB" fill-opacity="0.14"/>
    <text x="455" y="772" fill="#FFF5EB" font-size="14" font-family="Segoe UI, Arial, sans-serif" font-weight="600">Downloads</text>
    <rect x="548" y="750" width="88" height="34" rx="17" fill="#FFF5EB" fill-opacity="0.14"/>
    <text x="573" y="772" fill="#FFF5EB" font-size="14" font-family="Segoe UI, Arial, sans-serif" font-weight="600">Player</text>
    <rect x="646" y="750" width="88" height="34" rx="17" fill="#FFF5EB" fill-opacity="0.14"/>
    <text x="671" y="772" fill="#FFF5EB" font-size="14" font-family="Segoe UI, Arial, sans-serif" font-weight="600">Search</text>
    <rect x="744" y="750" width="94" height="34" rx="17" fill="#FFF5EB" fill-opacity="0.14"/>
    <text x="765" y="772" fill="#FFF5EB" font-size="14" font-family="Segoe UI, Arial, sans-serif" font-weight="600">Settings</text>
  </g>

  <path d="M640 294V332" stroke="#5AD6C5" stroke-width="4" stroke-linecap="round"/>
  <path d="M640 566V628" stroke="#E3A36F" stroke-width="4" stroke-linecap="round"/>
  <path d="M628 316L640 334L652 316" fill="none" stroke="#5AD6C5" stroke-width="4" stroke-linecap="round" stroke-linejoin="round"/>
  <path d="M628 606L640 624L652 606" fill="none" stroke="#E3A36F" stroke-width="4" stroke-linecap="round" stroke-linejoin="round"/>
</svg>