<svg width="1280" height="760" viewBox="0 0 1280 760" fill="none" xmlns="http://www.w3.org/2000/svg" role="img" aria-labelledby="title desc">
  <title id="title">Media playback pipeline</title>
  <desc id="desc">An icon-based pipeline diagram showing track activation, playback session handling, and publication to Android and iOS system playback surfaces.</desc>
  <defs>
    <linearGradient id="bg" x1="88" y1="36" x2="1186" y2="722" gradientUnits="userSpaceOnUse">
      <stop stop-color="#08181E"/>
      <stop offset="0.5" stop-color="#0F2830"/>
      <stop offset="1" stop-color="#12313D"/>
    </linearGradient>
    <linearGradient id="stageA" x1="90" y1="202" x2="388" y2="562" gradientUnits="userSpaceOnUse">
      <stop stop-color="#1DB7A0"/>
      <stop offset="1" stop-color="#157C8D"/>
    </linearGradient>
    <linearGradient id="stageB" x1="492" y1="202" x2="790" y2="562" gradientUnits="userSpaceOnUse">
      <stop stop-color="#173E57"/>
      <stop offset="1" stop-color="#10293B"/>
    </linearGradient>
    <linearGradient id="stageC" x1="894" y1="202" x2="1192" y2="562" gradientUnits="userSpaceOnUse">
      <stop stop-color="#B87338"/>
      <stop offset="1" stop-color="#8D5224"/>
    </linearGradient>
    <filter id="shadow" x="58" y="182" width="1166" height="540" filterUnits="userSpaceOnUse" color-interpolation-filters="sRGB">
      <feFlood flood-opacity="0" result="BackgroundImageFix"/>
      <feColorMatrix in="SourceAlpha" type="matrix" values="0 0 0 0 0 0 0 0 0 0 0 0 0 0 0 0 0 0 127 0" result="hardAlpha"/>
      <feOffset dy="14"/>
      <feGaussianBlur stdDeviation="14"/>
      <feColorMatrix type="matrix" values="0 0 0 0 0.0117647 0 0 0 0 0.0745098 0 0 0 0 0.101961 0 0 0 0.34 0"/>
      <feBlend mode="normal" in2="BackgroundImageFix" result="effect1_dropShadow_1_1"/>
      <feBlend mode="normal" in="SourceGraphic" in2="effect1_dropShadow_1_1" result="shape"/>
    </filter>
  </defs>
  <rect width="1280" height="760" rx="36" fill="url(#bg)"/>
  <circle cx="1114" cy="108" r="146" fill="#2FC7B5" fill-opacity="0.08"/>
  <circle cx="156" cy="640" r="172" fill="#70C5FF" fill-opacity="0.06"/>
  <text x="86" y="98" fill="#F4F7F8" font-size="40" font-family="Segoe UI, Arial, sans-serif" font-weight="700">Media Playback Pipeline</text>
  <text x="86" y="136" fill="#97B2B8" font-size="18" font-family="Segoe UI, Arial, sans-serif">From track selection to Android and iOS system playback surfaces.</text>

  <g filter="url(#shadow)">
    <rect x="86" y="206" width="300" height="360" rx="30" fill="url(#stageA)"/>
    <rect x="490" y="206" width="300" height="360" rx="30" fill="url(#stageB)" stroke="#5C859A" stroke-opacity="0.42" stroke-width="2"/>
    <rect x="894" y="206" width="300" height="360" rx="30" fill="url(#stageC)"/>
  </g>

  <g>
    <circle cx="158" cy="276" r="34" fill="#F8FCFC" fill-opacity="0.18"/>
    <path d="M153 258V301.5C153 306.194 156.806 310 161.5 310C166.194 310 170 306.194 170 301.5C170 296.806 166.194 293 161.5 293C159.372 293 157.427 293.784 156 295.078V267.5L181 261V287.5C181 292.194 184.806 296 189.5 296C194.194 296 198 292.194 198 287.5C198 282.806 194.194 279 189.5 279C187.372 279 185.427 279.784 184 281.078V250L153 258Z" fill="#F8FCFC"/>
    <text x="208" y="270" fill="#F8FCFC" font-size="28" font-family="Segoe UI, Arial, sans-serif" font-weight="700">Track Activation</text>
    <text x="120" y="332" fill="#DDF6F1" font-size="18" font-family="Segoe UI, Arial, sans-serif">The controller selects a playable track, resolves artwork, and loads a tagged local source for playback.</text>
    <rect x="120" y="392" width="226" height="42" rx="21" fill="#F8FCFC" fill-opacity="0.16"/>
    <text x="155" y="419" fill="#F8FCFC" font-size="15" font-family="Segoe UI, Arial, sans-serif" font-weight="600">AudioSource.uri(Uri.file(...))</text>
    <rect x="120" y="448" width="188" height="42" rx="21" fill="#F8FCFC" fill-opacity="0.16"/>
    <text x="152" y="475" fill="#F8FCFC" font-size="15" font-family="Segoe UI, Arial, sans-serif" font-weight="600">Tagged MediaItem</text>
  </g>

  <g>
    <circle cx="562" cy="276" r="34" fill="#F8FCFC" fill-opacity="0.12"/>
    <rect x="546" y="258" width="8" height="36" rx="4" fill="#F8FCFC"/>
    <rect x="558" y="250" width="8" height="52" rx="4" fill="#F8FCFC"/>
    <rect x="570" y="264" width="8" height="24" rx="4" fill="#F8FCFC"/>
    <rect x="582" y="254" width="8" height="44" rx="4" fill="#F8FCFC"/>
    <text x="612" y="270" fill="#F8FCFC" font-size="28" font-family="Segoe UI, Arial, sans-serif" font-weight="700">Playback Session</text>
    <text x="524" y="332" fill="#CBD9E1" font-size="18" font-family="Segoe UI, Arial, sans-serif">`just_audio` renders the file while `just_audio_background` publishes metadata and `audio_session` marks the app as music playback.</text>
    <rect x="524" y="392" width="150" height="42" rx="21" fill="#F8FCFC" fill-opacity="0.12"/>
    <text x="561" y="419" fill="#F8FCFC" font-size="15" font-family="Segoe UI, Arial, sans-serif" font-weight="600">AudioPlayer</text>
    <rect x="524" y="448" width="214" height="42" rx="21" fill="#F8FCFC" fill-opacity="0.12"/>
    <text x="553" y="475" fill="#F8FCFC" font-size="15" font-family="Segoe UI, Arial, sans-serif" font-weight="600">JustAudioBackground</text>
    <rect x="524" y="504" width="174" height="42" rx="21" fill="#F8FCFC" fill-opacity="0.12"/>
    <text x="554" y="531" fill="#F8FCFC" font-size="15" font-family="Segoe UI, Arial, sans-serif" font-weight="600">AudioSession.music()</text>
  </g>

  <g>
    <circle cx="966" cy="276" r="34" fill="#FFF6EC" fill-opacity="0.16"/>
    <rect x="948" y="256" width="36" height="44" rx="8" fill="#FFF6EC"/>
    <rect x="953" y="262" width="26" height="28" rx="4" fill="#9B5A2A"/>
    <circle cx="966" cy="294" r="2.5" fill="#9B5A2A"/>
    <text x="1016" y="270" fill="#FFF6EC" font-size="28" font-family="Segoe UI, Arial, sans-serif" font-weight="700">System Surfaces</text>
    <text x="928" y="332" fill="#F4DDC9" font-size="18" font-family="Segoe UI, Arial, sans-serif">Android exposes the notification deck while iOS publishes now-playing state to Lock Screen and Control Center.</text>
    <rect x="928" y="392" width="152" height="42" rx="21" fill="#FFF6EC" fill-opacity="0.14"/>
    <text x="955" y="419" fill="#FFF6EC" font-size="15" font-family="Segoe UI, Arial, sans-serif" font-weight="600">Android deck</text>
    <rect x="928" y="448" width="150" height="42" rx="21" fill="#FFF6EC" fill-opacity="0.14"/>
    <text x="957" y="475" fill="#FFF6EC" font-size="15" font-family="Segoe UI, Arial, sans-serif" font-weight="600">Lock Screen</text>
    <rect x="1088" y="448" width="82" height="42" rx="21" fill="#FFF6EC" fill-opacity="0.14"/>
    <text x="1112" y="475" fill="#FFF6EC" font-size="15" font-family="Segoe UI, Arial, sans-serif" font-weight="600">iOS</text>
  </g>

  <path d="M386 388H474" stroke="#58D8C7" stroke-width="5" stroke-linecap="round"/>
  <path d="M790 388H878" stroke="#E4A06B" stroke-width="5" stroke-linecap="round"/>
  <path d="M458 376L478 388L458 400" fill="none" stroke="#58D8C7" stroke-width="5" stroke-linecap="round" stroke-linejoin="round"/>
  <path d="M862 376L882 388L862 400" fill="none" stroke="#E4A06B" stroke-width="5" stroke-linecap="round" stroke-linejoin="round"/>

  <rect x="146" y="618" width="988" height="78" rx="22" fill="#102A34" stroke="#2D6872" stroke-opacity="0.45"/>
  <text x="184" y="653" fill="#8DEEE0" font-size="15" font-family="Segoe UI, Arial, sans-serif" font-weight="700">PLATFORM NOTE</text>
  <text x="184" y="679" fill="#F4F7F8" font-size="20" font-family="Segoe UI, Arial, sans-serif">iOS does not expose an Android-style notification shade media card. The equivalent user-facing surfaces are Lock Screen and Control Center.</text>
</svg>